<?xml version="1.0" encoding="UTF-8" standalone="no"?>
<!-- Created with Inkscape (http://www.inkscape.org/) -->

<svg
   width="87.09655mm"
   height="7.8401599mm"
   viewBox="0 0 87.09655 7.8401599"
   version="1.1"
   id="svg1"
   xml:space="preserve"
   sodipodi:docname="projectname.svg"
   inkscape:version="1.4 (e7c3feb1, 2024-10-09)"
   xmlns:inkscape="http://www.inkscape.org/namespaces/inkscape"
   xmlns:sodipodi="http://sodipodi.sourceforge.net/DTD/sodipodi-0.dtd"
   xmlns="http://www.w3.org/2000/svg"
   xmlns:svg="http://www.w3.org/2000/svg"><sodipodi:namedview
     id="namedview1"
     pagecolor="#505050"
     bordercolor="#eeeeee"
     borderopacity="1"
     inkscape:showpageshadow="0"
     inkscape:pageopacity="0"
     inkscape:pagecheckerboard="0"
     inkscape:deskcolor="#505050"
     inkscape:document-units="mm"
     inkscape:zoom="3.9865328"
     inkscape:cx="307.66083"
     inkscape:cy="17.935385"
     inkscape:window-width="1712"
     inkscape:window-height="956"
     inkscape:window-x="0"
     inkscape:window-y="34"
     inkscape:window-maximized="0"
     inkscape:current-layer="layer1" /><defs
     id="defs1" /><g
     id="layer1"
     transform="translate(-30.955863,-155.69836)"
     style="fill:#83ed06;fill-opacity:1"><path
       d="m 32.217397,161.92982 v -4.1656 h -1.126068 v 4.1656 z m -1.261534,-5.52873 c 0,0.37253 0.313267,0.6858 0.694267,0.6858 0.389467,0 0.694267,-0.31327 0.694267,-0.6858 0,-0.38947 -0.3048,-0.70273 -0.694267,-0.70273 -0.381,0 -0.694267,0.31326 -0.694267,0.70273 z m 4.334932,2.27753 c 0.5588,0 0.821267,0.3556 0.922867,0.70274 l 1.007533,-0.33867 c -0.1778,-0.70273 -0.821267,-1.40547 -1.9558,-1.40547 -1.210734,0 -2.159001,0.92287 -2.159001,2.2098 0,1.27847 0.9652,2.2098 2.192867,2.2098 1.109134,0 1.761068,-0.7112 1.947334,-1.40546 l -0.9906,-0.3302 c -0.09313,0.32173 -0.381,0.70273 -0.956734,0.70273 -0.575733,0 -1.0668,-0.42333 -1.0668,-1.17687 0,-0.75353 0.4826,-1.1684 1.058334,-1.1684 z m 3.911595,0.80434 c 0.0254,-0.4572 0.3048,-0.8128 0.778933,-0.8128 0.541867,0 0.770467,0.36406 0.770467,0.82973 v 2.42993 h 1.126067 v -2.62466 c 0,-0.9144 -0.491067,-1.651 -1.5494,-1.651 -0.397934,0 -0.855134,0.13546 -1.126067,0.4572 v -2.3114 h -1.126068 v 6.12986 h 1.126068 z m 4.639732,-0.11007 c 0.0254,-0.381 0.347133,-0.82127 0.931334,-0.82127 0.643466,0 0.9144,0.4064 0.931333,0.82127 z m 1.972734,1.08373 c -0.135467,0.37254 -0.423334,0.635 -0.948267,0.635 -0.5588,0 -1.024467,-0.39793 -1.049867,-0.94826 h 2.980268 c 0,-0.0169 0.01693,-0.18627 0.01693,-0.34714 0,-1.33773 -0.770467,-2.159 -2.057401,-2.159 -1.0668,0 -2.048934,0.8636 -2.048934,2.19287 0,1.40547 1.007534,2.22673 2.150534,2.22673 1.024467,0 1.684868,-0.60113 1.896534,-1.3208 z m 4.182536,-2.6924 -0.905934,2.67547 -0.770467,-2.67547 h -1.185334 l 1.329268,4.1656 h 1.143 l 0.956734,-2.8448 0.973667,2.8448 h 1.126067 l 1.303867,-4.1656 h -1.1176 l -0.770467,2.68394 -0.897467,-2.68394 z m 7.213597,-0.0169 c -0.08467,-0.008 -0.169333,-0.0169 -0.262467,-0.0169 -0.3556,0 -0.931333,0.1016 -1.185334,0.65193 v -0.61807 h -1.0922 v 4.1656 h 1.126067 v -1.905 c 0,-0.89746 0.499534,-1.17686 1.075267,-1.17686 0.1016,0 0.211667,0.008 0.338667,0.0339 z m 0.567277,3.048 c 0,0.65193 0.541867,1.25307 1.430868,1.25307 0.618067,0 1.016,-0.28787 1.227667,-0.61807 0,0.16087 0.01693,0.38947 0.04233,0.49953 h 1.032934 c -0.0254,-0.14393 -0.0508,-0.44026 -0.0508,-0.6604 v -2.04893 c 0,-0.8382 -0.491067,-1.58327 -1.811868,-1.58327 -1.1176,0 -1.718734,0.71967 -1.786467,1.3716 l 0.999067,0.21167 c 0.03387,-0.36407 0.3048,-0.67733 0.795867,-0.67733 0.474134,0 0.702734,0.24553 0.702734,0.54186 0,0.14394 -0.0762,0.26247 -0.313267,0.29634 l -1.024467,0.1524 c -0.694267,0.1016 -1.244601,0.51646 -1.244601,1.26153 z m 1.667934,0.41487 c -0.364066,0 -0.541866,-0.23707 -0.541866,-0.4826 0,-0.32174 0.2286,-0.4826 0.516466,-0.52494 l 0.939801,-0.14393 v 0.18627 c 0,0.7366 -0.440267,0.9652 -0.914401,0.9652 z m 7.103527,-5.4102 h -1.109133 v 2.37913 c -0.118534,-0.22013 -0.4572,-0.51647 -1.176867,-0.51647 -1.176868,0 -1.998135,0.95674 -1.998135,2.17594 0,1.26153 0.846667,2.19286 2.032001,2.19286 0.5588,0 0.982134,-0.254 1.168401,-0.5842 0,0.19474 0.0254,0.39794 0.04233,0.4826 h 1.075267 c -0.01693,-0.16933 -0.03387,-0.47413 -0.03387,-0.75353 z m -3.149601,4.0386 c 0,-0.74507 0.4572,-1.1684 1.032934,-1.1684 0.575734,0 1.024467,0.41486 1.024467,1.15993 0,0.75353 -0.448733,1.1938 -1.024467,1.1938 -0.592667,0 -1.032934,-0.44027 -1.032934,-1.18533 z m 6.239942,1.1938 c -0.550333,0 -1.058334,-0.4064 -1.058334,-1.18534 0,-0.7874 0.508001,-1.18533 1.058334,-1.18533 0.550334,0 1.058334,0.39793 1.058334,1.18533 0,0.7874 -0.508,1.18534 -1.058334,1.18534 z m 0,-3.39514 c -1.2446,0 -2.184401,0.92287 -2.184401,2.2098 0,1.27847 0.939801,2.2098 2.184401,2.2098 1.244601,0 2.184401,-0.93133 2.184401,-2.2098 0,-1.28693 -0.9398,-2.2098 -2.184401,-2.2098 z m 4.199468,1.89654 c 0,-0.4826 0.287866,-0.8636 0.778933,-0.8636 0.541867,0 0.770467,0.36406 0.770467,0.82973 v 2.42993 h 1.126067 v -2.62466 c 0,-0.9144 -0.474133,-1.651 -1.507067,-1.651 -0.448733,0 -0.948267,0.19473 -1.202267,0.62653 v -0.51647 h -1.092201 v 4.1656 h 1.126068 z m 3.454392,-2.54847 c 0,0.0762 0.0254,0.1778 0.03387,0.22013 l 0.397933,1.5494 h 0.397934 l 0.397933,-1.5494 c 0.01693,-0.0508 0.03387,-0.1524 0.03387,-0.22013 0,-0.37253 -0.262467,-0.64347 -0.626534,-0.64347 -0.364067,0 -0.635,0.27094 -0.635,0.64347 z m 1.794943,3.7846 c 0.0508,0.47413 0.4826,1.28693 1.735667,1.28693 1.092201,0 1.617134,-0.69426 1.617134,-1.3716 0,-0.6096 -0.414866,-1.10913 -1.236133,-1.27846 l -0.592667,-0.127 c -0.2286,-0.0423 -0.381,-0.16934 -0.381,-0.37254 0,-0.23706 0.237066,-0.41486 0.5334,-0.41486 0.474133,0 0.651933,0.31326 0.6858,0.5588 l 0.9398,-0.21167 c -0.0508,-0.44873 -0.448733,-1.20227 -1.634067,-1.20227 -0.897467,0 -1.557867,0.61807 -1.557867,1.36314 0,0.5842 0.364067,1.0668 1.1684,1.2446 l 0.550334,0.127 c 0.321733,0.0677 0.448733,0.22013 0.448733,0.4064 0,0.22013 -0.1778,0.41486 -0.550333,0.41486 -0.491067,0 -0.736601,-0.3048 -0.762001,-0.635 z m 7.476071,-1.28693 c 0.0254,-0.4572 0.3048,-0.8128 0.778934,-0.8128 0.541867,0 0.770467,0.36406 0.770467,0.82973 v 2.42993 h 1.126067 v -2.62466 c 0,-0.9144 -0.491067,-1.651 -1.549401,-1.651 -0.397933,0 -0.855133,0.13546 -1.126067,0.4572 v -2.3114 h -1.126067 v 6.12986 h 1.126067 z m 3.564463,1.31233 c 0,0.65193 0.541867,1.25307 1.430868,1.25307 0.618067,0 1.016,-0.28787 1.227667,-0.61807 0,0.16087 0.01693,0.38947 0.04233,0.49953 h 1.032934 c -0.0254,-0.14393 -0.0508,-0.44026 -0.0508,-0.6604 v -2.04893 c 0,-0.8382 -0.491067,-1.58327 -1.811867,-1.58327 -1.117601,0 -1.718734,0.71967 -1.786468,1.3716 l 0.999067,0.21167 c 0.03387,-0.36407 0.3048,-0.67733 0.795867,-0.67733 0.474134,0 0.702734,0.24553 0.702734,0.54186 0,0.14394 -0.0762,0.26247 -0.313267,0.29634 l -1.024467,0.1524 c -0.694267,0.1016 -1.244601,0.51646 -1.244601,1.26153 z m 1.667934,0.41487 c -0.364066,0 -0.541866,-0.23707 -0.541866,-0.4826 0,-0.32174 0.2286,-0.4826 0.516466,-0.52494 l 0.939801,-0.14393 v 0.18627 c 0,0.7366 -0.440267,0.9652 -0.914401,0.9652 z m 5.003793,-2.53154 c 0.558801,0 0.821267,0.3556 0.922867,0.70274 l 1.007534,-0.33867 c -0.1778,-0.70273 -0.821267,-1.40547 -1.955801,-1.40547 -1.210733,0 -2.159001,0.92287 -2.159001,2.2098 0,1.27847 0.965201,2.2098 2.192868,2.2098 1.109134,0 1.761067,-0.7112 1.947334,-1.40546 l -0.9906,-0.3302 c -0.09313,0.32173 -0.381,0.70273 -0.956734,0.70273 -0.575734,0 -1.0668,-0.42333 -1.0668,-1.17687 0,-0.75353 0.4826,-1.1684 1.058333,-1.1684 z m 6.824128,-0.9144 h -1.4732 l -1.43933,1.5494 v -3.51366 h -1.12607 v 6.12986 h 1.12607 v -1.10066 l 0.46566,-0.49107 1.10067,1.59173 h 1.38007 l -1.7018,-2.413 z m 1.82033,5.77427 v -2.01507 c 0.2032,0.2794 0.62654,0.508 1.20227,0.508 1.17687,0 1.96427,-0.93133 1.96427,-2.19286 0,-1.23614 -0.70274,-2.16747 -1.92194,-2.16747 -0.62653,0 -1.0922,0.2794 -1.27846,0.60113 v -0.508 h -1.09221 v 5.77427 z m 2.0574,-3.69147 c 0,0.74507 -0.4572,1.17687 -1.03293,1.17687 -0.57573,0 -1.0414,-0.44027 -1.0414,-1.17687 0,-0.7366 0.46567,-1.1684 1.0414,-1.1684 0.57573,0 1.03293,0.4318 1.03293,1.1684 z m 1.74414,0.94827 c 0,0.65193 0.54186,1.25307 1.43086,1.25307 0.61807,0 1.016,-0.28787 1.22767,-0.61807 0,0.16087 0.0169,0.38947 0.0423,0.49953 h 1.03294 c -0.0254,-0.14393 -0.0508,-0.44026 -0.0508,-0.6604 v -2.04893 c 0,-0.8382 -0.49107,-1.58327 -1.81187,-1.58327 -1.1176,0 -1.71873,0.71967 -1.78647,1.3716 l 0.99907,0.21167 c 0.0339,-0.36407 0.3048,-0.67733 0.79587,-0.67733 0.47413,0 0.70273,0.24553 0.70273,0.54186 0,0.14394 -0.0762,0.26247 -0.31327,0.29634 l -1.02446,0.1524 c -0.69427,0.1016 -1.2446,0.51646 -1.2446,1.26153 z m 1.66793,0.41487 c -0.36407,0 -0.54187,-0.23707 -0.54187,-0.4826 0,-0.32174 0.2286,-0.4826 0.51647,-0.52494 l 0.9398,-0.14393 v 0.18627 c 0,0.7366 -0.44027,0.9652 -0.9144,0.9652 z m 7.10353,-5.4102 h -1.10914 v 2.37913 c -0.11853,-0.22013 -0.4572,-0.51647 -1.17686,-0.51647 -1.17687,0 -1.99814,0.95674 -1.99814,2.17594 0,1.26153 0.84667,2.19286 2.032,2.19286 0.5588,0 0.98214,-0.254 1.1684,-0.5842 0,0.19474 0.0254,0.39794 0.0423,0.4826 h 1.07526 c -0.0169,-0.16933 -0.0339,-0.47413 -0.0339,-0.75353 z m -3.1496,4.0386 c 0,-0.74507 0.4572,-1.1684 1.03293,-1.1684 0.57573,0 1.02447,0.41486 1.02447,1.15993 0,0.75353 -0.44874,1.1938 -1.02447,1.1938 -0.59267,0 -1.03293,-0.44027 -1.03293,-1.18533 z"
       id="text1"
       style="font-weight:bold;font-size:8.46667px;line-height:1;font-family:'Circular Std Bold';-inkscape-font-specification:'Circular Std Bold,  Bold';text-align:center;text-anchor:middle;fill:#83ed06;fill-opacity:1;stroke-width:0"
       aria-label="ichewradon's hackpad v1"
       sodipodi:nodetypes="cccccssssssccsssccssscssccsscccccccscccsccsssscccccccccccccccccscccccssccsscccsssccssccssssccsscccssscccscssssssssssssssssssccsscccccssccccsssscssccssccssccsscccssccssccccccsscccsssccssccssssccsssccsssccssscccccccccccccccssscccccssssscscccsssccssccccssccsscccssscccccsssss" /></g></svg>
